<svg width="34" height="59" viewBox="0 0 34 59" fill="none" xmlns="http://www.w3.org/2000/svg">
<g clip-path="url(#clip0)">
<path fill-rule="evenodd" clip-rule="evenodd" d="M30.5399 0.168103L16.969 6.44062L3.39802 0.168103C2.44602 -0.355025 1.1333 0.396423 1.1333 1.74V27.9303C1.1333 28.9339 1.72706 29.7518 2.53279 29.7769C2.56983 29.7816 2.60731 29.7816 2.64435 29.7769H2.72493L11.6189 28.8423L9.93434 26.4123C9.19803 25.3723 10.0905 24.4691 11.0351 24.8204C11.2247 24.8906 11.4305 24.7978 11.6152 24.8467L9.38397 17.2294C9.37529 17.203 9.36785 17.1767 9.36042 17.1503L9.34306 17.0926V17.0751C9.2823 16.7658 9.33435 16.4448 9.48955 16.1715C9.64476 15.8981 9.89261 15.6909 10.1872 15.5883C10.4817 15.4858 10.8031 15.4947 11.0916 15.6135C11.3802 15.7323 11.6164 15.953 11.7565 16.2345V16.2458C11.7776 16.2885 14.3163 22.6275 14.3163 22.6275C14.3755 22.3061 14.5459 22.0167 14.7971 21.8111C15.0482 21.6056 15.3635 21.4974 15.6864 21.506C16.0093 21.5146 16.3186 21.6395 16.5586 21.8581C16.7987 22.0768 16.9539 22.3749 16.9962 22.699C17.041 22.3654 17.2047 22.0599 17.4565 21.8399C17.7083 21.6199 18.0309 21.5007 18.3635 21.5047C19.0267 21.5047 19.5411 22.0981 19.6564 22.7379L21.165 18.4349C21.2694 18.147 21.4705 17.9053 21.733 17.752C21.9955 17.5986 22.3029 17.5434 22.6015 17.596C22.9002 17.6486 23.1711 17.8055 23.367 18.0396C23.563 18.2736 23.6716 18.5698 23.6739 18.8765V18.9167L22.3302 28.8335L31.2143 29.7681H31.2948C31.3319 29.7728 31.3694 29.7728 31.4064 29.7681C32.2121 29.743 32.7613 28.9301 32.7613 27.9253V1.73372C32.76 0.391405 31.4919 -0.355025 30.5399 0.168103Z" fill="#EC1C24"/>
</g>
<mask id="mask0" mask-type="alpha" maskUnits="userSpaceOnUse" x="0" y="34" width="34" height="25">
<path d="M0 34H34V45.9459H0V34Z" fill="#FF0000"/>
<path d="M0 46.8649H34V58.8108H0V46.8649Z" fill="#FF0000"/>
</mask>
<g mask="url(#mask0)">
<path d="M26.7718 34.4346H23.9827C23.8028 34.4346 23.6302 34.5069 23.503 34.6357C23.3758 34.7644 23.3043 34.9391 23.3043 35.1212V45.1898C23.3043 45.3719 23.3758 45.5466 23.503 45.6753C23.6302 45.8041 23.8028 45.8764 23.9827 45.8764H26.7718C30.9315 45.8764 33.0271 43.5878 33.0271 40.179C33.0271 36.7702 30.9315 34.4346 26.7718 34.4346ZM27.6512 42.3939H26.9251C26.8051 42.3939 26.6901 42.3457 26.6053 42.2598C26.5204 42.174 26.4728 42.0576 26.4728 41.9362V38.3252C26.4728 38.2038 26.5204 38.0874 26.6053 38.0016C26.6901 37.9157 26.8051 37.8675 26.9251 37.8675H27.6035C28.557 37.8675 29.1865 38.6749 29.1865 40.179C29.1865 41.6832 28.6111 42.3952 27.6575 42.3952L27.6512 42.3939ZM1.59737 45.8764H3.63263C3.81256 45.8764 3.98511 45.8041 4.11234 45.6753C4.23957 45.5466 4.31105 45.3719 4.31105 45.1898V41.9858L5.33119 44.1193C5.38775 44.2346 5.47523 44.3316 5.58364 44.399C5.69205 44.4665 5.81703 44.5017 5.94428 44.5007H5.97192C6.09484 44.5014 6.21564 44.4683 6.32141 44.4049C6.42718 44.3416 6.51395 44.2503 6.57245 44.1409L7.70315 41.987V45.1911C7.70315 45.3732 7.77463 45.5478 7.90186 45.6766C8.02908 45.8054 8.20164 45.8777 8.38157 45.8777H10.4168C10.5059 45.8777 10.5941 45.8599 10.6765 45.8254C10.7588 45.7909 10.8336 45.7403 10.8965 45.6766C10.9595 45.6128 11.0095 45.5371 11.0436 45.4538C11.0777 45.3705 11.0953 45.2813 11.0953 45.1911V35.1212C11.0953 35.031 11.0777 34.9417 11.0436 34.8584C11.0095 34.7751 10.9595 34.6994 10.8965 34.6357C10.8336 34.5719 10.7588 34.5213 10.6765 34.4868C10.5941 34.4523 10.5059 34.4346 10.4168 34.4346H8.21699C8.09378 34.4346 7.97289 34.4686 7.86731 34.5329C7.76173 34.5971 7.67545 34.6893 7.61772 34.7995L5.89403 38.0964L4.16908 34.8008C4.11135 34.6906 4.02507 34.5984 3.91949 34.5341C3.81391 34.4698 3.69303 34.4359 3.56981 34.4358H1.59737C1.41744 34.4358 1.24488 34.5082 1.11765 34.6369C0.990422 34.7657 0.918945 34.9403 0.918945 35.1224V45.1911C0.919278 45.373 0.990901 45.5473 1.11809 45.6758C1.24529 45.8043 1.41765 45.8764 1.59737 45.8764ZM19.0102 44.7728L19.181 45.3793C19.2214 45.5228 19.3069 45.649 19.4246 45.739C19.5422 45.8289 19.6856 45.8776 19.8331 45.8777H21.7176C21.8232 45.8778 21.9274 45.853 22.0219 45.8051C22.1164 45.7572 22.1984 45.6875 22.2616 45.6018C22.3247 45.516 22.3671 45.4165 22.3854 45.3112C22.4038 45.2059 22.3975 45.0977 22.3671 44.9953C21.6899 42.7194 19.9022 36.7079 19.382 34.9508C19.3401 34.8098 19.2544 34.6863 19.1376 34.5986C19.0208 34.5109 18.8792 34.4636 18.7338 34.4638H15.6683C15.5226 34.4638 15.3807 34.5113 15.2638 34.5992C15.1468 34.6872 15.0609 34.8109 15.0188 34.9521L12.035 44.9966C12.0035 45.0994 11.9963 45.2084 12.014 45.3146C12.0318 45.4208 12.074 45.5213 12.1372 45.6079C12.2005 45.6945 12.2829 45.7649 12.378 45.8133C12.4731 45.8617 12.5781 45.8868 12.6845 45.8866H14.6519C14.7994 45.8865 14.9428 45.8378 15.0604 45.7479C15.1781 45.6579 15.2636 45.5317 15.304 45.3882L15.4748 44.7817C15.5152 44.6382 15.6007 44.5119 15.7184 44.422C15.836 44.3321 15.9794 44.2834 16.1269 44.2833H18.3581C18.5044 44.2828 18.647 44.3302 18.7645 44.4184C18.882 44.5067 18.9682 44.631 19.0102 44.7728ZM16.294 41.6247L17.1985 38.4206L18.1031 41.6247H16.294ZM4.31105 47.9336H1.59737C1.41744 47.9336 1.24488 48.006 1.11765 48.1347C0.990422 48.2635 0.918945 48.4381 0.918945 48.6202V55.9438C0.918945 56.1259 0.990422 56.3005 1.11765 56.4293C1.24488 56.5581 1.41744 56.6304 1.59737 56.6304H4.53719C7.65038 56.6304 9.05999 54.8287 9.05999 52.282C9.05999 49.7353 7.42299 47.9336 4.31105 47.9336ZM4.53719 53.8828H4.08491C4.02493 53.8828 3.96741 53.8587 3.925 53.8158C3.88259 53.7728 3.85877 53.7146 3.85877 53.6539V50.9076C3.85877 50.8469 3.88259 50.7887 3.925 50.7457C3.96741 50.7028 4.02493 50.6787 4.08491 50.6787H4.53719C5.41662 50.6787 5.89403 51.1555 5.89403 52.2807C5.89403 53.406 5.41411 53.8866 4.53719 53.8866V53.8828ZM31.6338 51.79C31.3423 51.5925 30.7176 51.3704 29.7594 51.1237L29.2857 51.0055C29.2522 50.9978 29.2037 50.9848 29.14 50.9661C28.4188 50.7821 28.0583 50.5525 28.0583 50.2769C28.053 50.1936 28.0692 50.1102 28.1053 50.0351C28.1414 49.96 28.1962 49.8957 28.2643 49.8484C28.4559 49.7412 28.674 49.6922 28.8925 49.7073C29.151 49.6915 29.4083 49.7544 29.6312 49.8879C29.8046 50.0087 30.1124 50.2095 30.1526 50.4549H31.8801C31.9482 50.4552 32.0155 50.4399 32.077 50.4101C32.1384 50.3802 32.1924 50.3367 32.2348 50.2827C32.2773 50.2288 32.3071 50.1658 32.322 50.0985C32.3369 50.0312 32.3366 49.9614 32.321 49.8942C32.1993 49.3371 31.883 48.8432 31.4303 48.5032C30.7045 47.9738 29.8297 47.6948 28.9352 47.7073C28.0256 47.6916 27.1366 47.9819 26.4075 48.5325C25.7931 49.0029 25.4024 49.5611 25.4024 50.385C25.4215 50.7986 25.5296 51.203 25.719 51.57C25.8854 51.8997 26.1297 52.1827 26.4301 52.3939C26.6763 52.5459 26.9395 52.668 27.214 52.7575C27.5733 52.8872 28.0558 53.0313 28.6613 53.1898L29.0018 53.275C29.7414 53.4632 30.1115 53.7077 30.1124 54.0087C30.1131 54.1002 30.0887 54.1902 30.0419 54.2685C29.9951 54.3468 29.9277 54.4105 29.8473 54.4524C29.6235 54.5711 29.3723 54.6268 29.1199 54.6139C28.7514 54.6139 28.4741 54.5481 28.2882 54.4168C28.1023 54.2896 27.9603 53.9603 27.8899 53.6539H25.9301C25.8628 53.6539 25.7964 53.669 25.7356 53.6981C25.6748 53.7272 25.6212 53.7697 25.5786 53.8224C25.536 53.8751 25.5056 53.9367 25.4894 54.0028C25.4733 54.0689 25.4719 54.1378 25.4853 54.2045C25.6222 54.8732 25.9112 55.4556 26.415 55.8446C27.0532 56.338 27.8447 56.6279 28.9339 56.6279C30.1162 56.6279 31.0961 56.338 31.7305 55.8446C32.365 55.3513 32.6414 54.5732 32.6414 53.6527C32.6414 53.2267 32.5974 52.933 32.4303 52.6202C32.236 52.2816 31.9625 51.9965 31.6338 51.79ZM24.2792 47.9336H22.3558C22.197 47.9337 22.0433 47.9901 21.9214 48.093C21.7996 48.1959 21.7172 48.3388 21.6887 48.4969L20.8859 52.9673L20.0831 48.4969C20.0546 48.3388 19.9722 48.1959 19.8503 48.093C19.7284 47.9901 19.5747 47.9337 19.416 47.9336H17.4913C17.386 47.9336 17.2823 47.9583 17.1881 48.0058C17.0939 48.0534 17.012 48.1224 16.9488 48.2075C16.8855 48.2926 16.8427 48.3914 16.8237 48.4962C16.8047 48.6009 16.81 48.7086 16.8392 48.8109L18.9335 56.1333C18.9744 56.2763 19.0601 56.402 19.1777 56.4914C19.2953 56.5809 19.4384 56.6292 19.5856 56.6291H22.1837C22.3308 56.6292 22.4739 56.5809 22.5915 56.4914C22.7091 56.402 22.7948 56.2763 22.8357 56.1333L24.93 48.8109C24.9592 48.7088 24.9645 48.6011 24.9456 48.4965C24.9266 48.3918 24.8839 48.2931 24.8208 48.208C24.7577 48.1229 24.676 48.0539 24.582 48.0063C24.488 47.9586 24.3843 47.9338 24.2792 47.9336ZM15.3907 47.9336H10.4156C10.3265 47.9336 10.2383 47.9514 10.156 47.9859C10.0736 48.0204 9.99886 48.071 9.93586 48.1347C9.87286 48.1985 9.82289 48.2742 9.7888 48.3575C9.7547 48.4408 9.73716 48.5301 9.73716 48.6202V55.9438C9.73716 56.1259 9.80863 56.3005 9.93586 56.4293C10.0631 56.5581 10.2356 56.6304 10.4156 56.6304H15.3907C15.5706 56.6304 15.7431 56.5581 15.8704 56.4293C15.9976 56.3005 16.0691 56.1259 16.0691 55.9438V54.7995C16.0691 54.6781 16.0214 54.5617 15.9366 54.4758C15.8518 54.39 15.7368 54.3418 15.6168 54.3418H12.677C12.617 54.3418 12.5595 54.3177 12.5171 54.2747C12.4747 54.2318 12.4508 54.1736 12.4508 54.1129V53.6552C12.4508 53.5945 12.4747 53.5363 12.5171 53.4934C12.5595 53.4504 12.617 53.4263 12.677 53.4263H14.9384C14.9978 53.4263 15.0566 53.4145 15.1115 53.3915C15.1663 53.3685 15.2162 53.3348 15.2582 53.2923C15.3002 53.2498 15.3335 53.1993 15.3562 53.1438C15.379 53.0882 15.3907 53.0287 15.3907 52.9686V51.5954C15.3907 51.474 15.343 51.3576 15.2582 51.2718C15.1734 51.1859 15.0583 51.1377 14.9384 51.1377H12.677C12.617 51.1377 12.5595 51.1136 12.5171 51.0707C12.4747 51.0278 12.4508 50.9695 12.4508 50.9088V50.4511C12.4508 50.3904 12.4747 50.3322 12.5171 50.2893C12.5595 50.2464 12.617 50.2223 12.677 50.2223H15.6181C15.6775 50.2223 15.7363 50.2104 15.7911 50.1874C15.846 50.1644 15.8959 50.1307 15.9379 50.0882C15.9799 50.0457 16.0132 49.9952 16.0359 49.9397C16.0586 49.8842 16.0703 49.8246 16.0703 49.7645V48.6202C16.0703 48.5299 16.0527 48.4406 16.0186 48.3572C15.9844 48.2738 15.9343 48.1981 15.8712 48.1343C15.8081 48.0705 15.7331 48.02 15.6507 47.9855C15.5682 47.9511 15.4799 47.9335 15.3907 47.9336Z" fill="white"/>
</g>
<defs>
<clipPath id="clip0">
<rect width="31.7333" height="31.7333" fill="white" transform="translate(1.1333)"/>
</clipPath>
</defs>
</svg>
